<svg width="24" height="24" viewBox="0 0 24 24" fill="none" xmlns="http://www.w3.org/2000/svg">
<path d="M17.0093 21.2501L17.0093 21.25H17H7.00186C6.7064 21.2486 6.4141 21.189 6.14166 21.0746C5.87022 20.9607 5.6238 20.7946 5.41635 20.5857C5.00304 20.1559 4.76538 19.587 4.74999 18.991V4.99999H4.75L4.74998 4.99567C4.74826 4.69777 4.80571 4.40249 4.91901 4.12697C5.03231 3.85146 5.19919 3.60118 5.40998 3.39067L5.41011 3.39053C5.61717 3.18363 5.8636 3.02035 6.13484 2.91032C6.40608 2.80029 6.69662 2.74574 6.9893 2.74992L6.9893 2.74999H6.99999H13.9958C14.3976 2.75481 14.7938 2.84516 15.1581 3.01505C15.5229 3.18521 15.8472 3.43124 16.1094 3.7367C16.1098 3.73716 16.1101 3.73762 16.1105 3.73808L18.568 6.63516L18.568 6.63523L18.5766 6.64502C18.9053 7.01913 19.1382 7.46715 19.2556 7.95053C19.2577 7.99941 19.2567 8.04838 19.2526 8.09717L19.25 8.12852V8.15999V8.16058V8.16117V8.16175V8.16234V8.16293V8.16352V8.16411V8.1647V8.16529V8.16589V8.16648V8.16707V8.16767V8.16826V8.16886V8.16945V8.17005V8.17065V8.17125V8.17185V8.17245V8.17305V8.17365V8.17425V8.17485V8.17545V8.17606V8.17666V8.17726V8.17787V8.17847V8.17908V8.17969V8.18029V8.1809V8.18151V8.18212V8.18273V8.18334V8.18395V8.18456V8.18518V8.18579V8.1864V8.18702V8.18763V8.18824V8.18886V8.18948V8.19009V8.19071V8.19133V8.19195V8.19256V8.19318V8.1938V8.19442V8.19505V8.19567V8.19629V8.19691V8.19754V8.19816V8.19878V8.19941V8.20003V8.20066V8.20128V8.20191V8.20254V8.20317V8.20379V8.20442V8.20505V8.20568V8.20631V8.20694V8.20757V8.2082V8.20884V8.20947V8.2101V8.21074V8.21137V8.212V8.21264V8.21327V8.21391V8.21455V8.21518V8.21582V8.21646V8.2171V8.21773V8.21837V8.21901V8.21965V8.22029V8.22093V8.22157V8.22222V8.22286V8.2235V8.22414V8.22478V8.22543V8.22607V8.22672V8.22736V8.22801V8.22865V8.2293V8.22994V8.23059V8.23124V8.23188V8.23253V8.23318V8.23383V8.23448V8.23513V8.23578V8.23643V8.23708V8.23773V8.23838V8.23903V8.23968V8.24033V8.24099V8.24164V8.24229V8.24294V8.2436V8.24425V8.24491V8.24556V8.24622V8.24687V8.24753V8.24818V8.24884V8.2495V8.25015V8.25081V8.25147V8.25213V8.25278V8.25344V8.2541V8.25476V8.25542V8.25608V8.25674V8.2574V8.25806V8.25872V8.25938V8.26004V8.2607V8.26136V8.26202V8.26269V8.26335V8.26401V8.26468V8.26534V8.266V8.26666V8.26733V8.26799V8.26866V8.26932V8.26999V8.27065V8.27132V8.27198V8.27265V8.27331V8.27398V8.27465V8.27531V8.27598V8.27664V8.27731V8.27798V8.27865V8.27931V8.27998V8.28065V8.28132V8.28199V8.28265V8.28332V8.28399V8.28466V8.28533V8.286V8.28667V8.28734V8.28801V8.28868V8.28935V8.29002V8.29069V8.29136V8.29203V8.2927V8.29337V8.29404V8.29471V8.29538V8.29605V8.29673V8.2974V8.29807V8.29874V8.29941V8.30008V8.30076V8.30143V8.3021V8.30277V8.30345V8.30412V8.30479V8.30546V8.30614V8.30681V8.30748V8.30816V8.30883V8.3095V8.31017V8.31085V8.31152V8.31219V8.31287V8.31354V8.31421V8.31489V8.31556V8.31623V8.31691V8.31758V8.31826V8.31893V8.3196V8.32028V8.32095V8.32162V8.3223V8.32297V8.32365V8.32432V8.32499V8.32567V8.32634V8.32701V8.32769V8.32836V8.32904V8.32971V8.33038V8.33106V8.33173V8.33241V8.33308V8.33375V8.33443V8.3351V8.33577V8.33645V8.33712V8.33779V8.33847V8.33914V8.33981V8.34049V8.34116V8.34183V8.34251V8.34318V8.34385V8.34452V8.3452V8.34587V8.34654V8.34721V8.34789V8.34856V8.34923V8.3499V8.35057V8.35125V8.35192V8.35259V8.35326V8.35393V8.3546V8.35528V8.35595V8.35662V8.35729V8.35796V8.35863V8.3593V8.35997V8.36064V8.36131V8.36198V8.36265V8.36332V8.36399V8.36466V8.36533V8.366V8.36666V8.36733V8.368V8.36867V8.36934V8.37001V8.37067V8.37134V8.37201V8.37268V8.37334V8.37401V8.37468V8.37534V8.37601V8.37667V8.37734V8.37801V8.37867V8.37934V8.38V8.38067V8.38133V8.38199V8.38266V8.38332V8.38399V8.38465V8.38531V8.38597V8.38664V8.3873V8.38796V8.38862V8.38929V8.38995V8.39061V8.39127V8.39193V8.39259V8.39325V8.39391V8.39457V8.39523V8.39589V8.39655V8.3972V8.39786V8.39852V8.39918V8.39983V8.40049V8.40115V8.4018V8.40246V8.40312V8.40377V8.40443V8.40508V8.40574V8.40639V8.40704V8.4077V8.40835V8.409V8.40965V8.41031V8.41096V8.41161V8.41226V8.41291V8.41356V8.41421V8.41486V8.41551V8.41616V8.41681V8.41746V8.4181V8.41875V8.4194V8.42004V8.42069V8.42134V8.42198V8.42263V8.42327V8.42392V8.42456V8.4252V8.42585V8.42649V8.42713V8.42777V8.42841V8.42905V8.4297V8.43034V8.43097V8.43161V8.43225V8.43289V8.43353V8.43417V8.4348V8.43544V8.43608V8.43671V8.43735V8.43798V8.43862V8.43925V8.43988V8.44052V8.44115V8.44178V8.44241V8.44305V8.44368V8.44431V8.44494V8.44556V8.44619V8.44682V8.44745V8.44808V8.4487V8.44933V8.44995V8.45058V8.4512V8.45183V8.45245V8.45308V8.4537V8.45432V8.45494V8.45556V8.45618V8.4568V8.45742V8.45804V8.45866V8.45928V8.45989V8.46051V8.46113V8.46174V8.46236V8.46297V8.46359V8.4642V8.46481V8.46542V8.46604V8.46665V8.46726V8.46787V8.46848V8.46908V8.46969V8.4703V8.47091V8.47151V8.47212V8.47272V8.47333V8.47393V8.47453V8.47514V8.47574V8.47634V8.47694V8.47754V8.47814V8.47874V8.47934V8.47994V8.48053V8.48113V8.48172V8.48232V8.48291V8.48351V8.4841V8.48469V8.48528V8.48588V8.48647V8.48706V8.48764V8.48823V8.48882V8.48941V8.48999V18.9988C19.2478 19.5923 19.0231 20.1632 18.6204 20.5988C18.41 20.8073 18.1604 20.9721 17.886 21.0839C17.6078 21.1973 17.3097 21.2538 17.0093 21.2501Z" stroke="#BEC7D3" stroke-width="1.5"/>
<path d="M13.38 14.51C13.04 14.13 12.71 13.71 12.38 13.33L11.97 12.83C12.1328 12.4159 12.2404 11.9822 12.29 11.54C12.4088 10.9764 12.3048 10.3887 12 9.89999C11.9178 9.80834 11.8102 9.74323 11.6909 9.71295C11.5716 9.68268 11.4459 9.68861 11.33 9.72999C11.1977 9.78215 11.0802 9.86594 10.9879 9.97403C10.8955 10.0821 10.831 10.2112 10.8 10.35C10.7004 10.7857 10.6898 11.237 10.7689 11.6769C10.8479 12.1168 11.015 12.5362 11.26 12.91C10.9733 13.6409 10.6392 14.3525 10.26 15.04C9.61554 15.2459 9.02235 15.5868 8.52001 16.04C7.97001 16.57 7.75001 17.11 7.91001 17.5C7.95963 17.6188 8.04502 17.7193 8.15434 17.7874C8.26365 17.8555 8.39146 17.8878 8.52001 17.88C8.73811 17.872 8.94954 17.8027 9.13001 17.68C9.7745 17.0678 10.306 16.3468 10.7 15.55C11.3094 15.3644 11.9359 15.2404 12.57 15.18H13.08C13.5128 15.7335 14.1068 16.1388 14.78 16.34C14.8798 16.3498 14.9803 16.3498 15.08 16.34C15.2545 16.3533 15.4295 16.3207 15.5875 16.2452C15.7454 16.1697 15.8808 16.0542 15.98 15.91C16.037 15.8093 16.0669 15.6956 16.0669 15.58C16.0669 15.4643 16.037 15.3506 15.98 15.25C15.7 14.77 14.87 14.51 13.63 14.51H13.38ZM8.83001 17.16C8.75176 17.2191 8.65787 17.2538 8.56001 17.26C8.56001 17.2 8.56001 16.93 9.03001 16.5C9.25649 16.3005 9.50875 16.1323 9.78001 16C9.53565 16.4552 9.21423 16.8646 8.83001 17.21V17.16ZM11.43 10.54C11.43 10.4 11.53 10.34 11.56 10.33C11.56 10.33 11.74 10.58 11.67 11.48C11.6515 11.6796 11.6146 11.8771 11.56 12.07C11.3512 11.588 11.3021 11.0519 11.42 10.54H11.43ZM12.55 14.54C12.0749 14.5814 11.6036 14.6583 11.14 14.77C11.36 14.33 11.56 13.88 11.73 13.47L11.91 13.7C12.12 13.95 12.35 14.25 12.59 14.53L12.55 14.54ZM15.46 15.54C15.4143 15.5848 15.3591 15.6188 15.2986 15.6396C15.238 15.6603 15.1736 15.6673 15.11 15.66H14.92C14.5714 15.5635 14.2542 15.3773 14 15.12C15 15.12 15.37 15.4 15.45 15.54H15.46Z" fill="#FF0000"/>
</svg>
