<svg xmlns="http://www.w3.org/2000/svg" width="160" height="59" viewBox="0 0 160 59" fill="none">
  <g clip-path="url(#clip0_476_5276)">
    <path fill-rule="evenodd" clip-rule="evenodd" d="M22.1456 57.5448C23.3435 58.2539 24.6919 58.6036 26.0402 58.6036C27.3885 58.6036 28.7369 58.2539 29.9397 57.5399L48.1858 46.8433C50.5866 45.4348 52.0804 42.8099 52.0804 39.9929V18.5998C52.0804 15.7828 50.5914 13.1579 48.1858 11.7494L29.9397 1.05285C27.534 -0.35563 24.5512 -0.35563 22.1456 1.05285L3.89463 11.7544C1.49383 13.1628 0 15.7877 0 18.6047V39.9979C0 42.8148 1.49383 45.4446 3.89463 46.8531L22.1456 57.5448ZM24.9829 6.05148C25.3078 5.85942 25.6764 5.76585 26.0402 5.76585C26.404 5.76585 26.7677 5.85942 27.0975 6.05148L45.3387 16.7481C45.9935 17.1273 46.3961 17.8414 46.3961 18.6047V39.9979C46.3961 40.7612 45.9887 41.4704 45.3387 41.8545L27.0927 52.5511C26.4428 52.9303 25.6328 52.9303 24.9829 52.5511L6.73679 41.8545C6.08203 41.4704 5.67947 40.7612 5.67947 39.9979V18.6047C5.67947 17.8414 6.08688 17.1322 6.73679 16.7481L24.9829 6.05148ZM85.3276 47.6471C88.0776 47.6471 90.0759 46.8591 91.3224 45.2881C92.564 43.7171 93.1897 41.2646 93.1897 37.9256V10.9576H87.7527V37.8271C87.7527 38.9106 87.7139 39.802 87.6411 40.4963C87.5635 41.1858 87.3598 41.7719 87.0203 42.2348C86.6808 42.6977 86.1231 42.9341 85.3373 42.9341C84.5516 42.9341 84.0375 42.7617 83.7853 42.4268C83.5331 42.092 83.3197 41.7177 83.1451 41.304C82.9705 40.8903 82.8832 39.733 82.8832 37.8222V10.9576H77.4462V37.9256C77.4462 41.2498 78.0719 43.6974 79.3232 45.2783C80.5745 46.8591 82.5728 47.6471 85.3276 47.6471ZM60.5195 42.3332V47.2383H73.4645V42.476H66.2233L73.6294 15.4489V10.9773H61.1888V15.7395H67.9256L60.5195 42.3332ZM98.3407 47.2383V10.9773H105.097L110.17 37.4725L114.938 10.9773H121.733V47.2383H116.888V33.7247L117.091 21.3193L112.28 47.0708H107.959L102.948 21.3193L103.152 33.7247V47.2383H98.3407ZM127.111 10.9773V47.2383H139.329V42.476H132.548V30.9422H138.756V26.2834H132.548V15.7395H139.081V10.9773H127.111ZM143.67 47.2383V10.9773H147.928L155.499 32.7348L155.111 22.8459V10.9773H160V47.2383H156.149L148.374 24.7173L148.68 34.2369V47.2383H143.67ZM18.0227 41.0085C17.2952 41.0085 16.5677 40.7278 16.0148 40.1614C14.9041 39.0337 14.9041 37.2115 16.0148 36.0837L29.8521 23.5699H18.0567C16.4853 23.5699 15.2145 22.2796 15.2145 20.684C15.2145 19.0933 16.4853 17.7981 18.0567 17.7981H32.1171C34.0426 17.7981 35.7596 18.9653 36.4968 20.7727C37.234 22.58 36.8314 24.6386 35.4685 26.0225L20.0307 40.1614C19.4778 40.7278 18.7503 41.0085 18.0227 41.0085ZM34.0625 41.0085C35.6097 41.0085 36.861 39.7379 36.861 38.1669C36.861 36.6008 35.6097 35.3302 34.0625 35.3253C32.5153 35.3253 31.264 36.6008 31.264 38.1669C31.264 39.7379 32.5201 41.0085 34.0625 41.0085Z" fill="black"/>
  </g>
  <defs>
    <clipPath id="clip0_476_5276">
      <rect width="160" height="58.6047" fill="white"/>
    </clipPath>
  </defs>
</svg>